<?xml version="1.0" encoding="utf-8"?>
<svg version="1.1" xmlns:xlink="http://www.w3.org/1999/xlink" width="50px" height="43px" xmlns="http://www.w3.org/2000/svg">
  <g transform="matrix(1 0 0 1 -915 -240 )">
    <path d="M 46.4192708333333 26.2160456730769  C 46.5842013888889 26.0523838141026  46.6666666666667 25.8585737179487  46 25.6346153846154  L 46 4.13461538461538  C 46.6666666666667 3.91065705128205  46.5842013888889 3.7168469551282  46.4192708333333 3.55318509615385  C 46.2543402777778 3.38952323717948  46.0590277777778 3.30769230769231  45.8333333333333 4  L 4.16666666666667 4  C 3.94097222222222 3.30769230769231  3.74565972222222 3.38952323717948  3.58072916666667 3.55318509615385  C 3.41579861111111 3.7168469551282  3.33333333333333 3.91065705128205  4 4.13461538461538  L 4 25.6346153846154  C 3.33333333333333 25.8585737179487  3.41579861111111 26.0523838141026  3.58072916666667 26.2160456730769  C 3.74565972222222 26.3797075320513  3.94097222222222 26.4615384615385  4.16666666666667 26  L 45.8333333333333 26  C 46.0590277777778 26.4615384615385  46.2543402777778 26.3797075320513  46.4192708333333 26.2160456730769  Z M 48.7760416666667 1.21454326923077  C 49.5920138888889 2.02423878205128  50 2.99759615384615  50 4.13461538461538  L 50 32.25  C 50 33.3870192307692  49.5920138888889 34.3603766025641  48.7760416666667 35.1700721153846  C 47.9600694444445 35.9797676282051  46.9791666666667 36.3846153846154  45.8333333333333 36  L 31.6666666666667 36  C 31.6666666666667 37.0220352564103  31.8055555555556 37.6896033653846  32.0833333333333 38.3873197115385  C 32.3611111111111 39.0850360576923  32.6388888888889 39.6966145833333  32.9166666666667 40.2220552884615  C 33.1944444444445 40.7474959935897  33.3333333333333 41.1221955128205  33.3333333333333 41.3461538461538  C 33.3333333333333 41.7940705128205  33.1684027777778 42.1816907051282  32.8385416666667 42.5090144230769  C 32.5086805555556 42.8363381410256  32.1180555555556 43  31.6666666666667 43  L 18.3333333333333 43  C 17.8819444444444 43  17.4913194444444 42.8363381410256  17.1614583333333 42.5090144230769  C 16.8315972222222 42.1816907051282  16.6666666666667 41.7940705128205  16.6666666666667 41.3461538461538  C 16.6666666666667 41.1049679487179  16.8055555555556 40.7259615384615  17.0833333333333 40.2091346153846  C 17.3611111111111 39.6923076923077  17.6388888888889 39.0893429487179  17.9166666666667 38.4002403846154  C 18.1944444444444 37.7111378205128  18.3333333333333 37.0392628205128  18.3333333333333 36  L 4.16666666666667 36  C 3.02083333333333 36.3846153846154  2.03993055555556 35.9797676282051  1.22395833333333 35.1700721153846  C 0.407986111111111 34.3603766025641  0 33.3870192307692  0 32.25  L 0 4.13461538461538  C 0 2.99759615384615  0.407986111111111 2.02423878205128  1.22395833333333 1.21454326923077  C 2.03993055555556 0.404847756410256  3.02083333333333 0  4.16666666666667 0  L 45.8333333333333 0  C 46.9791666666667 0  47.9600694444445 0.404847756410256  48.7760416666667 1.21454326923077  Z " fill-rule="nonzero" fill="#000000" stroke="none" transform="matrix(1 0 0 1 915 240 )" />
  </g>
</svg>